<?xml version="1.0" standalone="no"?>
<!DOCTYPE svg PUBLIC "-//W3C//DTD SVG 20010904//EN"
 "http://www.w3.org/TR/2001/REC-SVG-20010904/DTD/svg10.dtd">
<svg version="1.0" xmlns="http://www.w3.org/2000/svg"
 width="782.000000pt" height="782.000000pt" viewBox="0 0 782.000000 782.000000"
 preserveAspectRatio="xMidYMid meet">
<metadata>
Created by potrace 1.11, written by Peter Selinger 2001-2013
</metadata>
<g transform="translate(0.000000,782.000000) scale(0.100000,-0.100000)"
fill="#000000" stroke="none">
<path d="M3848 7791 c-29 -15 -75 -41 -103 -58 -27 -17 -192 -113 -365 -213
-269 -157 -831 -484 -1120 -653 -125 -73 -139 -81 -205 -119 -33 -19 -143 -83
-245 -143 -102 -59 -234 -137 -295 -171 -60 -35 -117 -68 -125 -73 -68 -43
-171 -101 -180 -101 -5 0 -10 -4 -10 -10 0 -5 -4 -10 -10 -10 -5 0 -62 -31
-126 -70 -65 -38 -119 -70 -121 -70 -10 0 -140 -86 -150 -99 -18 -24 -15 -92
5 -118 14 -17 164 -113 178 -113 2 0 32 -17 66 -38 35 -21 88 -52 118 -69 30
-17 260 -148 510 -291 250 -143 468 -263 483 -266 29 -5 88 23 242 114 44 26
287 168 540 315 253 147 514 299 580 337 66 39 140 82 165 96 25 13 50 28 55
32 6 4 27 17 48 29 21 12 107 61 190 110 84 48 337 195 562 326 226 130 421
245 435 254 14 8 36 22 50 29 207 110 293 177 285 220 -2 10 -4 24 -4 33 -2
32 -28 52 -171 132 -25 14 -85 48 -135 77 -49 29 -103 60 -120 70 -16 9 -53
31 -81 47 -27 17 -71 42 -96 56 -25 14 -193 110 -374 214 -181 105 -338 195
-350 201 -42 23 -72 21 -126 -7z"/>
<path d="M5680 6790 c-14 -4 -45 -19 -68 -34 -23 -14 -44 -26 -47 -26 -3 0
-18 -8 -33 -19 -22 -15 -544 -320 -631 -369 -14 -7 -42 -24 -63 -35 -55 -33
-149 -88 -183 -107 -53 -30 -1166 -679 -1260 -735 -49 -29 -106 -62 -125 -73
-19 -10 -62 -35 -95 -55 -33 -19 -79 -45 -102 -58 -254 -145 -483 -285 -492
-303 -18 -34 -19 -69 -4 -101 14 -29 54 -53 552 -336 25 -14 213 -122 416
-238 204 -117 381 -214 395 -216 32 -4 69 12 171 73 46 27 127 74 179 105 52
30 163 94 245 142 83 49 263 153 400 233 138 80 262 153 277 163 14 11 28 19
31 19 3 0 77 42 164 94 87 51 216 126 287 167 70 41 135 79 144 84 10 6 199
116 420 245 221 129 417 243 435 254 206 118 365 213 375 223 22 22 26 86 8
124 -16 33 -93 80 -580 352 -28 16 -72 42 -99 58 -26 16 -49 29 -51 29 -3 0
-46 24 -98 54 -51 29 -113 65 -138 78 -25 14 -113 65 -197 113 -165 93 -195
105 -233 95z"/>
<path d="M526 5570 c-25 -5 -49 -18 -63 -34 l-23 -27 1 -767 c2 -568 5 -775
14 -797 10 -25 55 -55 260 -175 136 -80 259 -152 274 -160 26 -15 64 -38 379
-224 90 -53 166 -96 169 -96 2 0 24 -13 48 -30 24 -16 46 -30 48 -30 4 0 187
-106 447 -260 308 -182 398 -234 427 -251 17 -10 125 -73 240 -140 114 -67
262 -154 328 -192 66 -39 136 -80 155 -92 19 -12 55 -33 80 -47 25 -14 100
-57 167 -97 67 -39 133 -71 148 -71 38 0 84 27 95 56 6 14 10 345 11 797 2
638 0 776 -12 794 -7 12 -61 50 -119 84 -58 34 -122 72 -142 85 -21 13 -40 24
-42 24 -2 0 -40 21 -83 46 -43 26 -91 55 -108 64 -16 10 -111 65 -210 122 -99
58 -279 163 -400 233 -121 70 -233 136 -250 146 -16 11 -37 22 -45 26 -8 4
-46 26 -85 49 -38 23 -236 138 -440 256 -203 118 -536 312 -740 430 -203 119
-387 225 -408 237 -21 12 -48 27 -60 35 -15 9 -35 11 -61 6z"/>
<path d="M7251 5569 c-20 -8 -441 -260 -541 -324 -19 -13 -69 -43 -110 -67
-41 -25 -169 -103 -285 -173 -115 -71 -252 -153 -303 -184 -52 -31 -99 -65
-105 -76 -7 -13 -10 -569 -10 -1812 0 -1503 2 -1797 14 -1819 18 -34 56 -52
97 -48 20 3 156 76 345 185 172 100 326 190 342 199 356 204 654 383 669 403
19 25 19 67 19 1837 0 1445 -2 1815 -12 1834 -21 39 -80 61 -120 45z"/>
<path d="M5447 4500 c-55 -30 -807 -479 -839 -501 -15 -10 -29 -19 -32 -19
-12 0 -414 -246 -436 -267 l-25 -23 0 -1798 c-1 -1069 3 -1808 8 -1825 5 -15
20 -35 34 -44 47 -31 83 -19 260 88 92 56 229 138 303 182 74 44 151 90 170
102 19 12 177 107 350 210 173 103 326 198 340 212 l25 23 3 1798 c3 1649 2
1800 -13 1828 -29 55 -84 68 -148 34z"/>
<path d="M502 3505 c-61 -26 -59 -3 -58 -836 l1 -759 25 -24 c14 -14 221 -140
460 -282 239 -141 518 -306 620 -367 102 -60 199 -117 215 -127 17 -9 104 -61
195 -115 91 -54 239 -141 330 -195 91 -54 187 -110 213 -126 27 -16 63 -37 80
-47 88 -53 374 -223 388 -232 9 -5 32 -18 50 -29 19 -10 153 -90 299 -176 146
-87 280 -160 297 -163 39 -6 90 23 103 59 15 39 13 1536 -2 1568 -11 26 -27
39 -95 77 -54 30 -1209 706 -1263 739 -25 15 -101 60 -170 100 -69 40 -158 92
-198 116 -40 24 -74 44 -77 44 -2 0 -40 23 -84 50 -44 28 -83 50 -85 50 -2 0
-34 18 -71 41 -37 22 -82 49 -99 58 -34 19 -832 487 -887 520 -110 66 -141 75
-187 56z"/>
</g>
</svg>
