<?xml version="1.0" encoding="UTF-8" standalone="no"?>
<svg
   xmlns:dc="http://purl.org/dc/elements/1.1/"
   xmlns:cc="http://creativecommons.org/ns#"
   xmlns:rdf="http://www.w3.org/1999/02/22-rdf-syntax-ns#"
   xmlns:svg="http://www.w3.org/2000/svg"
   xmlns="http://www.w3.org/2000/svg"
   id="svg2"
   viewBox="0 0 32 31.999903"
   version="1.1"
   width="32pt"
   height="32pt">
  <metadata
     id="metadata14">
    <rdf:RDF>
      <cc:Work
         rdf:about="">
        <dc:format>image/svg+xml</dc:format>
        <dc:type
           rdf:resource="http://purl.org/dc/dcmitype/StillImage" />
        <dc:title></dc:title>
      </cc:Work>
    </rdf:RDF>
  </metadata>
  <defs
     id="defs12" />
  <g
     id="g4"
     transform="matrix(0.08045465,0,0,0.08045403,-2.8331476,3.8052148)">
    <path
       style="fill:#c3c3c3"
       id="path6"
       d="m 365.3,18.38 c -6.88,0.25 -13.669,1.4797 -20.509,2.1797 -3.68,-1.16 -5.6803,1.78 -6.9703,4.35 -3.55,6.52 -7.7497,12.771 -10.13,19.841 -1.56,6.23 -2.78,12.53 -4.2,18.78 -0.98,4.03 1.2087,7.85 2.4687,11.55 -9.4,12.81 -19.189,25.371 -29.439,37.511 -3,3.05 -7.43,2.2294 -11.1,1.1594 -3.32,-6.29 -6.861,-12.479 -10.861,-18.359 -5.26,-3.31 -11.22,-5.2812 -16.75,-8.0812 -4.18,-1.91 -8.24,-4.7097 -13.1,-4.1797 -29.94,-2.57 -59.92,-0.08031 -89.88,0.07969 -30.57,12.868 -59.95,28.569 -90.83,40.789 -8.94,4.12 -18.459,6.98 -27.109,11.7 9.48,6.64 18.79,13.51 28.23,20.2 10.66,-1.85 21.239,-8.2106 32.109,-3.6406 -2.41,9.74 -12.229,14.721 -18.639,21.591 0.94,1.45 2.81,4.3594 3.75,5.8094 3.78,2.54 8.62,2.0006 12.9,1.5906 7,-0.92 14.019,-2.17 21.109,-1.8 -7.25,5.26 -14.87,9.9703 -22.45,14.72 10.13,5.69 20.639,10.829 31.209,15.609 6.93,-1.63 13.17,-5.3991 19.87,-7.7891 6.06,-2.13 11.76,-6.56 18.55,-5.35 9.3,0.37 18.391,-1.9909 27.641,-2.4609 -2.56,7.31 -10.97,10.05 -16.67,14.35 -21.4,8.49 -43.171,16.081 -64.691,24.311 -4.08,1.37 -8.109,2.8997 -11.939,4.8797 10.39,3.72 20.8,7.3991 31.13,11.289 -1.04,4.26 -2.1194,8.5303 -3.0594,12.82 1.98,1.1 3.8997,2.3197 5.8797,3.4297 -4.16,8.87 -9.17,17.351 -12.7,26.511 20.27,-11.56 38.929,-25.731 58.959,-37.711 12.11,-6.32 24.401,-12.339 36.691,-18.309 -2.07,10.06 -4.0397,20.15 -5.7797,30.28 5.61,-2.01 11.15,-4.2091 16.73,-6.2891 3.55,-1.5 7.6003,-2.9503 9.5703,-6.5203 5.34,-7.8 8.1687,-16.83 11.019,-25.73 -0.06,-2.79 1.8013,-4.71 4.2313,-5.1 13.34,-2.78 26.869,-4.63 40.159,-7.65 12.58,-5.15 24.991,-10.79 37.241,-16.7 4.48,-4.22 7.89,-9.5103 11.65,-14.37 2.96,-4.38 6.539,-8.6903 6.889,-14.22 3.95,-21.61 8.1497,-43.17 12.13,-64.77 0.38,-3.22 1.4706,-6.27 2.9906,-9.1 6.59,-3.51 11.07,-9.9303 17.62,-13.47 10.98,-3.21 22.559,-3.9997 33.539,-7.2297 5.14,-3.06 9.83,-7.03 14.04,-11.28 -0.08,-2.12 -0.52032,-4.2003 -0.87032,-6.2703 -12.54,-3.17 -25.47,-4.3397 -38.15,-6.7797 -1.61,-0.4 -2.7403,-1.7306 -4.0203,-2.6906 -0.52,-6.56 -3.4697,-12.769 -5.4297,-18.959 -3.89,-4 -8.3897,-7.4503 -13.03,-10.52 z" />
    <path
       style="fill:#ffc90e"
       id="path8"
       d="m 383.76,47.86 c 1.28,0.96 2.41,2.29 4.02,2.69 12.68,2.44 25.61,3.61 38.15,6.78 0.35,2.07 0.79,4.15 0.87,6.27 -4.21,4.25 -8.9,8.22 -14.04,11.28 -10.98,3.23 -22.56,4.02 -33.54,7.23 -6.55,3.54 -11.03,9.96 -17.62,13.47 7.58,-15.81 15.66,-31.43 22.16,-47.72 z" />
  </g>
</svg>
